<svg xmlns="http://www.w3.org/2000/svg" viewBox="0 0 700 520"><defs><linearGradient id="a" x1="0" x2="1"><stop stop-color="#a78bfa"/><stop offset="1" stop-color="#22d3ee"/></linearGradient><filter id="s"><feDropShadow dx="0" dy="18" stdDeviation="18" flood-opacity=".35"/></filter></defs><rect width="700" height="520" rx="40" fill="#130b35"/><g filter="url(#s)"><path d="M237 361c-65-17-113-75-113-145 0-82 65-148 145-148 22-45 67-74 119-74 82 0 149 67 149 150 51 18 88 67 88 125 0 73-59 132-132 132H285c-17 0-33-2-48-6z" fill="url(#a)"/><path d="M270 128c55 25 70 68 46 124m107-192c-36 31-40 72-11 116M220 306c68-7 115 14 137 72m119-185c-65 25-82 73-52 144" fill="none" stroke="#fff" stroke-width="22" stroke-linecap="round" opacity=".78"/></g><circle cx="157" cy="107" r="14" fill="#22c55e"/><circle cx="570" cy="83" r="10" fill="#f59e0b"/><circle cx="592" cy="408" r="16" fill="#fb7185"/><text x="350" y="480" text-anchor="middle" font-family="Arial" font-weight="700" font-size="28" fill="#fff">Toque nas imagens e avance por etapas</text></svg>
