<svg xmlns="http://www.w3.org/2000/svg" viewBox="0 0 512 512"><defs><linearGradient id="g" x1="0" x2="1" y1="0" y2="1"><stop stop-color="#8b5cf6"/><stop offset="1" stop-color="#22d3ee"/></linearGradient></defs><rect width="512" height="512" rx="120" fill="#09071f"/><circle cx="256" cy="256" r="190" fill="url(#g)" opacity=".95"/><path d="M183 319c-34-10-59-43-59-83 0-47 34-85 77-85 14-29 43-48 76-48 47 0 85 39 85 88v6c30 10 51 39 51 73 0 43-33 78-74 78H210c-9 0-18-1-27-4z" fill="white" opacity=".92"/><path d="M205 190c35 16 44 41 29 75m65-116c-22 19-24 43-7 70m-117 73c41-5 69 8 82 43m72-112c-39 15-49 44-31 87" fill="none" stroke="#4c1d95" stroke-width="18" stroke-linecap="round"/></svg>
